<svg preserveAspectRatio="none" overflow="visible" style="display: block;" width="50.23" height="56.7474" viewBox="0 0 50.23 56.7474" fill="none" xmlns="http://www.w3.org/2000/svg">
<g id="logos:tiktok-icon">
<path id="Vector" d="M37.2228 20.4845C40.8869 23.1024 45.3757 24.6428 50.2237 24.6428V15.3187C49.3061 15.3191 48.391 15.2233 47.4934 15.0331V22.3725C42.6457 22.3725 38.1575 20.8323 34.4926 18.2146V37.2425C34.4926 46.7614 26.7721 54.4773 17.2491 54.4773C13.6958 54.4773 10.393 53.4036 7.64957 51.5622C10.7809 54.7623 15.1477 56.7474 19.9786 56.7474C29.5024 56.7474 37.2232 49.0315 37.2232 39.5123V20.4845H37.2228ZM40.591 11.0777C38.7184 9.03296 37.4888 6.39051 37.2228 3.46911V2.26991H34.6354C35.2867 5.98287 37.5084 9.15497 40.591 11.0777ZM13.6729 44.2579C12.6265 42.887 12.061 41.2096 12.0636 39.485C12.0636 35.1315 15.5949 31.6016 19.9517 31.6016C20.7635 31.6012 21.5706 31.7258 22.3445 31.971V22.4384C21.4401 22.3146 20.5275 22.2618 19.6153 22.2813V29.7009C18.841 29.4556 18.0336 29.3311 17.2214 29.3317C12.8648 29.3317 9.33371 32.8612 9.33371 37.2153C9.33371 40.294 11.0987 42.9594 13.6729 44.2579Z" fill="#FF004F"/>
<path id="Vector_2" d="M34.4926 18.2144C38.1577 20.8321 42.6456 22.3723 47.4934 22.3723V15.0329C44.7874 14.4567 42.3919 13.0435 40.5908 11.0777C37.508 9.15478 35.2867 5.98267 34.6354 2.26991H27.8394V39.5119C27.8239 43.8536 24.2987 47.369 19.9513 47.369C17.3897 47.369 15.1137 46.1486 13.6725 44.2577C11.0987 42.9594 9.33352 40.2938 9.33352 37.2155C9.33352 32.8618 12.8646 29.3319 17.2212 29.3319C18.0559 29.3319 18.8604 29.4618 19.6151 29.7011V22.2815C10.2593 22.4747 2.73506 30.1152 2.73506 39.5121C2.73506 44.2029 4.60871 48.4554 7.64977 51.5625C10.3932 53.4036 13.6958 54.4777 17.2493 54.4777C26.7725 54.4777 34.4928 46.7612 34.4928 37.2425L34.4926 18.2144Z" fill="black"/>
<path id="Vector_3" d="M47.4934 15.0327V13.0486C45.0532 13.0521 42.6612 12.3691 40.5908 11.0777C42.4235 13.083 44.8367 14.4658 47.4934 15.0331M34.6352 2.26971C34.5732 1.91495 34.5256 1.55782 34.4924 1.1992V0H25.1087V37.2424C25.0938 41.5836 21.5686 45.0991 17.221 45.0991C15.9885 45.1009 14.7729 44.8128 13.6723 44.2581C15.1135 46.1486 17.3895 47.3688 19.9512 47.3688C24.2983 47.3688 27.8239 43.8538 27.8392 39.5121V2.26991L34.6352 2.26971ZM19.6155 22.2813V20.1687C18.8314 20.0616 18.0409 20.008 17.2495 20.0082C7.7253 20.0082 0.00493073 27.7245 0.00493073 37.2424C0.00493073 43.2097 3.03913 48.4687 7.64997 51.5622C4.6089 48.4552 2.73526 44.2025 2.73526 39.5119C2.73526 30.1152 10.2593 22.4745 19.6155 22.2813Z" fill="#00F2EA"/>
</g>
</svg>
